<svg xmlns="http://www.w3.org/2000/svg" width="100" height="100" fill="none"><g clip-path="url(#a)"><circle cx="50" cy="50" r="49.5" fill="#000" stroke="#000"/><mask id="b" width="98" height="98" x="1" y="1" maskUnits="userSpaceOnUse" style="mask-type:alpha"><path fill="#000" stroke="#000" stroke-width="2" d="M98 50c0 26.51-21.49 48-48 48S2 76.51 2 50 23.49 2 50 2s48 21.49 48 48Z"/></mask><g mask="url(#b)"><path fill="#FBBF24" d="M25.99 25.296c10.29-8.82 15.601-6.411 24.99 0 19.127 13.063 5.38 62.46-16.66 64.394-13.905 1.22-23.9-6.959-26.95-20.58C5.703 61.667 5.392 53.59 8.8 50c-1.858-.03-5.727-2.078-5.3-12.5 0-11 13-26 21-29.5s17 6.5 13.74 11.224c-3.43.582-5.962.682-12.25 6.072Z"/><path stroke="#000" stroke-linecap="round" stroke-linejoin="round" stroke-width="2" d="M25.99 25.296c10.29-8.82 15.601-6.411 24.99 0 19.127 13.063 5.38 62.46-16.66 64.394-13.905 1.22-23.9-6.959-26.95-20.58-2.478-11.061-1.96-23.52 9.31-20.58-4.41-1.15-6.571-.256-7.838 1.47C7 50 3.07 48 3.5 37.5c0-11 13-26 21-29.5s17 6.5 13.74 11.224c-3.43.582-5.962.682-12.25 6.072Z"/><path fill="#FBBF24" d="M40.2 20.6c0-14.7 1.413-19.11 9.8-19.11s9.8 4.41 9.8 19.11S65.68 50 65.68 50 89.2 98.51 50 98.51 33.34 50 33.34 50s6.86-14.7 6.86-29.4Z"/><path stroke="#000" stroke-linecap="round" stroke-linejoin="round" stroke-width="2" d="M40.2 20.6c0-14.7 1.413-19.11 9.8-19.11s9.8 4.41 9.8 19.11S65.68 50 65.68 50 89.2 98.51 50 98.51 33.34 50 33.34 50s6.86-14.7 6.86-29.4Z"/><path fill="#FBBF24" stroke="#000" stroke-linecap="round" stroke-linejoin="round" stroke-width="2" d="M94.1 69.6c-4.841 9.31-11.43 19.722-23.03 20.58-20.458 1.513-11.76-58.31-10.78-70.56.98-12.25 6.86-17.15 16.17-10.29C85.77 16.19 89.755 20.424 92 30c3.102 13.23 1.5 16.5 0 18.5 8.82.49 6.941 11.79 2.1 21.1Z"/><path fill="#000" stroke="#000" stroke-linecap="round" stroke-linejoin="round" d="M50.496 27.936a.5.5 0 0 0-.992 0c-.435 3.348-.87 8.365-.978 12.551-.054 2.09-.028 3.992.124 5.38.076.69.186 1.285.349 1.721.08.217.186.428.333.593A.89.89 0 0 0 50 48.5a.89.89 0 0 0 .668-.319c.147-.164.253-.376.334-.593.162-.436.272-1.032.347-1.72.153-1.39.18-3.291.125-5.381-.109-4.186-.543-9.203-.978-12.551Z"/></g></g><defs><clipPath id="a"><path fill="#fff" d="M0 0h100v100H0z"/></clipPath></defs></svg>