<svg width="100" height="100" viewBox="0 0 100 100" fill="none" xmlns="http://www.w3.org/2000/svg">
<circle cx="50" cy="50" r="40.5" fill="black" stroke="black"/>
<mask id="mask0_37_70" style="mask-type:alpha" maskUnits="userSpaceOnUse" x="10" y="10" width="80" height="80">
<path d="M89 50C89 71.5391 71.5391 89 50 89C28.4609 89 11 71.5391 11 50C11 28.4609 28.4609 11 50 11C71.5391 11 89 28.4609 89 50Z" fill="black" stroke="black" stroke-width="2"/>
</mask>
<g mask="url(#mask0_37_70)">
<path d="M30.4 29.8338C38.8 22.6338 43.1358 24.5996 50.8 29.8338C66.4135 40.4968 55.1925 80.8213 37.2 82.4C25.8489 83.3959 17.6905 76.7193 15.2 65.6C13.8391 59.5239 13.5852 52.9312 16.368 49.9998C14.8507 49.9755 11.6922 48.3039 12.0408 39.7959C12.0408 30.8163 22.6531 18.5714 29.1837 15.7143C35.7143 12.8571 43.0612 21.0204 40.4 24.8765C37.6 25.352 35.5333 25.4338 30.4 29.8338Z" fill="#FBBF24"/>
<path d="M30.4 29.8338C38.8 22.6338 43.1358 24.5996 50.8 29.8338C66.4135 40.4968 55.1925 80.8213 37.2 82.4C25.8489 83.3959 17.6905 76.7193 15.2 65.6C13.1775 56.5704 13.6 46.4 22.8 48.8C19.2 47.8609 17.4355 48.5912 16.4016 50C14.898 50 11.6896 48.3673 12.0408 39.7959C12.0408 30.8163 22.6531 18.5714 29.1837 15.7143C35.7143 12.8571 43.0612 21.0204 40.4 24.8765C37.6 25.352 35.5333 25.4338 30.4 29.8338Z" stroke="black" stroke-width="2" stroke-linecap="round" stroke-linejoin="round"/>
<path d="M42 26C42 14 43.1534 10.4 50 10.4C56.8465 10.4 58 14 58 26C58 38 62.8 50 62.8 50C62.8 50 82 89.6 50 89.6C18 89.6 36.4 50 36.4 50C36.4 50 42 38 42 26Z" fill="#FBBF24"/>
<path d="M42 26C42 14 43.1534 10.4 50 10.4C56.8465 10.4 58 14 58 26C58 38 62.8 50 62.8 50C62.8 50 82 89.6 50 89.6C18 89.6 36.4 50 36.4 50C36.4 50 42 38 42 26Z" stroke="black" stroke-width="2" stroke-linecap="round" stroke-linejoin="round"/>
<path d="M86 66C82.048 73.6 76.6697 82.0994 67.2 82.8C50.4998 84.0355 57.6 35.2 58.4 25.2C59.2 15.2 64 11.2 71.6 16.8C79.2 22.4 82.4531 25.8562 84.2857 33.6735C86.8176 44.4735 85.5102 47.1429 84.2857 48.7755C91.4857 49.1755 89.952 58.4 86 66Z" fill="#FBBF24" stroke="black" stroke-width="2" stroke-linecap="round" stroke-linejoin="round"/>
<path d="M50.4958 31.9764C50.4635 31.7273 50.2512 31.5408 50 31.5408C49.7488 31.5408 49.5365 31.7273 49.5042 31.9764C49.1487 34.7128 48.7937 38.8116 48.7048 42.2319C48.6605 43.9389 48.6818 45.4966 48.8071 46.6363C48.8691 47.201 48.96 47.6964 49.0964 48.0633C49.1641 48.2454 49.2552 48.4299 49.3861 48.5767C49.5241 48.7313 49.7305 48.8674 50 48.8674C50.2695 48.8674 50.4759 48.7313 50.6138 48.5767C50.7448 48.4299 50.8359 48.2454 50.9036 48.0633C51.04 47.6964 51.1308 47.201 51.1929 46.6363C51.3182 45.4966 51.3395 43.9389 51.2952 42.2319C51.2063 38.8116 50.8513 34.7128 50.4958 31.9764Z" fill="black" stroke="black" stroke-linecap="round" stroke-linejoin="round"/>
</g>
</svg>
